<?xml version="1.0" standalone="no"?>
<!DOCTYPE svg PUBLIC "-//W3C//DTD SVG 20010904//EN"
 "http://www.w3.org/TR/2001/REC-SVG-20010904/DTD/svg10.dtd">
<svg version="1.0" xmlns="http://www.w3.org/2000/svg"
 width="854.000000pt" height="854.000000pt" viewBox="0 0 854.000000 854.000000"
 preserveAspectRatio="xMidYMid meet">
<metadata>
Created by potrace 1.11, written by Peter Selinger 2001-2013
</metadata>
<g transform="translate(0.000000,854.000000) scale(0.100000,-0.100000)"
fill="#000000" stroke="none">
<path d="M0 4270 l0 -4270 653 0 652 1 -37 19 c-46 25 -61 45 -27 37 13 -3 74
-17 134 -31 l110 -26 835 2 c459 1 815 3 790 5 -61 5 -401 52 -419 59 -53 18
-393 74 -453 74 -69 0 -118 16 -118 39 0 15 104 31 205 31 99 0 286 -24 430
-55 38 -8 86 -15 105 -15 19 0 51 -4 70 -9 32 -9 120 -15 360 -26 356 -17 527
-26 605 -35 75 -8 385 -32 605 -46 30 -2 89 -6 130 -9 41 -3 390 -8 775 -11
l700 -7 65 33 c36 18 85 46 109 63 33 23 58 31 107 35 71 5 86 15 58 38 -16
13 -16 15 -2 10 9 -3 35 -10 57 -16 23 -6 41 -13 41 -15 0 -3 -15 -13 -34 -22
-89 -47 -114 -64 -129 -87 -10 -14 -17 -28 -17 -31 0 -10 158 -5 187 6 19 7
29 7 31 0 2 -7 47 -11 122 -11 l117 0 6 30 c5 24 12 30 32 30 33 0 114 19 145
35 35 17 78 24 195 30 85 5 196 17 460 51 58 7 185 42 201 55 6 5 39 16 75 25
65 16 287 120 325 152 22 19 44 54 44 71 0 17 -49 13 -94 -8 -69 -33 -244
-101 -258 -101 -8 0 -31 -9 -53 -20 -22 -11 -48 -20 -58 -20 -10 0 -26 -4 -35
-9 -10 -5 -83 -17 -162 -26 -80 -9 -179 -23 -220 -31 -41 -7 -104 -16 -140
-19 -100 -8 -125 -12 -148 -24 -11 -6 -29 -11 -40 -11 -11 0 -25 -7 -32 -15
-7 -8 -23 -15 -36 -15 -14 0 -32 -5 -42 -11 -13 -8 -29 -8 -60 1 -47 12 -58
27 -48 66 6 24 10 25 74 24 76 -2 155 14 173 36 6 8 18 14 26 14 8 0 26 6 41
14 15 8 144 33 287 56 300 49 457 93 623 175 117 58 163 98 169 145 4 37 -7
38 -73 5 -79 -39 -267 -115 -286 -115 -9 0 -20 -4 -23 -10 -3 -5 -16 -10 -28
-9 -12 0 -42 -5 -67 -11 -25 -6 -58 -13 -75 -15 -175 -25 -342 -66 -415 -102
-116 -56 -131 -60 -243 -70 -52 -4 -62 -2 -85 20 -15 13 -49 30 -77 37 -44 12
-98 38 -85 41 3 1 73 3 155 4 164 3 186 8 424 94 63 22 146 48 185 56 39 8
114 26 166 40 52 14 113 30 135 35 22 6 99 40 171 75 146 73 211 127 199 165
-6 18 -12 20 -33 15 -15 -3 -39 -15 -54 -25 -15 -11 -31 -20 -36 -20 -5 0 -42
-15 -83 -34 -41 -18 -108 -44 -149 -56 -41 -12 -83 -26 -92 -31 -10 -5 -29 -9
-42 -9 -14 0 -28 -5 -31 -11 -4 -5 -17 -9 -28 -8 -12 1 -30 -2 -40 -6 -10 -4
-26 -9 -35 -10 -10 -1 -24 -4 -32 -8 -8 -3 -51 -13 -95 -22 -80 -16 -178 -46
-225 -70 -70 -36 -137 -52 -183 -45 -25 4 -52 11 -59 17 -17 13 -85 15 -93 3
-3 -6 -35 -10 -70 -10 -72 0 -86 -12 -99 -79 -8 -46 -33 -71 -68 -71 -17 0
-28 -5 -28 -14 0 -7 -7 -19 -16 -26 -13 -11 -26 -8 -82 18 -61 28 -107 39
-241 57 -25 3 -61 14 -80 25 -51 26 -82 31 -203 32 -60 0 -110 4 -114 9 -3 5
-10 7 -15 3 -6 -3 -98 -1 -205 6 -107 6 -238 13 -292 15 -53 2 -167 6 -252 9
-85 3 -276 8 -424 11 -148 4 -272 8 -275 10 -6 3 -279 17 -318 16 -12 0 -25 4
-28 9 -3 6 -15 10 -27 10 -18 0 -20 4 -14 39 4 28 2 42 -9 51 -8 7 -15 24 -15
39 l1 26 28 -34 c20 -24 37 -34 62 -36 51 -4 417 -14 724 -21 149 -3 304 -7
345 -9 345 -15 651 -30 845 -42 44 -2 84 -9 90 -14 5 -5 20 -9 35 -9 39 0 161
-27 195 -44 16 -8 43 -18 58 -21 16 -3 39 -16 51 -28 36 -35 81 -57 130 -63
42 -6 46 -5 44 14 -2 13 8 28 32 44 27 19 36 33 42 68 4 24 14 50 21 57 14 14
150 34 218 32 124 -4 201 10 298 56 108 50 204 85 235 85 30 0 238 54 325 85
100 35 303 140 336 175 l27 28 -21 21 -21 21 -53 -23 c-155 -71 -264 -114
-312 -123 -11 -2 -40 -8 -65 -14 -25 -6 -58 -14 -75 -17 -16 -3 -36 -10 -42
-15 -7 -6 -19 -8 -27 -5 -8 3 -38 -3 -68 -14 -29 -12 -62 -23 -73 -27 -11 -3
-50 -21 -86 -39 -92 -47 -162 -63 -249 -58 -40 3 -92 0 -114 -6 -23 -6 -54
-13 -71 -16 -16 -3 -34 -9 -40 -13 -5 -5 -32 -11 -60 -15 -74 -11 -95 -27 -95
-75 0 -65 -64 -108 -90 -61 -17 33 -13 81 8 81 33 0 46 19 52 71 3 32 11 55
20 60 47 25 238 67 360 79 133 13 170 22 267 64 110 49 228 91 293 106 106 23
194 56 332 122 106 51 104 50 163 103 39 34 40 36 20 51 -23 17 -51 13 -108
-17 -21 -10 -43 -19 -50 -19 -7 0 -32 -10 -57 -23 -25 -13 -65 -29 -90 -36
-25 -7 -57 -20 -72 -27 -15 -8 -50 -18 -78 -21 -28 -3 -53 -10 -56 -14 -3 -5
-16 -9 -29 -9 -13 0 -27 -5 -30 -10 -3 -6 -19 -10 -34 -10 -16 0 -34 -6 -40
-14 -7 -8 -24 -17 -39 -21 -14 -3 -45 -15 -67 -25 -57 -26 -189 -58 -265 -65
-73 -7 -82 -8 -125 -19 -16 -4 -57 -14 -90 -23 -33 -8 -76 -18 -95 -23 -52
-12 -94 -26 -120 -40 -17 -9 -21 -18 -17 -43 6 -44 -10 -75 -45 -82 -22 -5
-32 -2 -47 17 l-19 23 -7 -27 c-13 -51 -73 -32 -98 31 -9 22 -22 43 -29 47 -6
4 -64 18 -128 31 -341 69 -652 89 -1570 98 -256 2 -503 7 -550 9 -47 3 -140 7
-207 10 -68 3 -128 8 -134 12 -6 4 -48 8 -93 9 -44 1 -139 7 -211 13 -71 6
-240 13 -375 17 -135 3 -290 8 -345 11 -127 8 -587 -13 -723 -32 -123 -18
-199 -49 -256 -104 -44 -43 -70 -49 -116 -25 -27 14 -30 20 -30 64 0 31 -6 57
-18 72 -10 13 -22 32 -25 42 -6 17 -8 17 -23 3 -8 -9 -19 -14 -24 -11 -5 3
-60 7 -123 9 -158 6 -183 21 -241 146 -13 28 -30 58 -39 68 -8 9 -17 35 -20
57 -8 62 -18 99 -32 115 -7 8 -18 44 -25 78 -7 35 -19 66 -26 69 -6 2 -15 20
-18 39 -4 19 -11 34 -15 34 -11 0 -23 -48 -16 -60 3 -6 13 -36 21 -67 22 -86
72 -208 105 -253 36 -49 36 -52 2 -44 -82 20 -174 102 -192 171 -5 21 -10 83
-10 138 -1 55 -5 165 -10 245 -15 245 -16 322 -7 422 10 104 21 139 82 262 30
59 64 139 75 177 29 96 92 149 229 193 49 16 190 96 412 236 90 56 168 87 242
96 l54 7 7 -58 c5 -36 3 -66 -4 -81 -18 -40 -13 -65 17 -93 69 -64 91 -128 61
-182 -9 -17 -7 -25 11 -44 14 -15 24 -42 27 -69 5 -42 7 -45 29 -40 13 3 24 3
24 -1 0 -13 -54 -119 -67 -133 -7 -7 -13 -20 -13 -27 0 -8 -9 -30 -20 -50 -11
-19 -29 -51 -40 -71 -30 -52 -20 -62 23 -24 33 29 37 30 37 12 0 -12 -5 -33
-10 -48 -17 -44 4 -49 35 -9 30 36 55 46 55 20 0 -8 10 -20 22 -26 19 -10 26
-7 63 36 36 42 45 47 69 41 26 -6 27 -9 22 -54 -3 -26 -8 -59 -11 -74 -6 -21
-2 -29 15 -38 20 -11 27 -8 62 29 22 23 46 41 53 41 8 0 27 11 43 25 37 31 40
31 44 2 2 -16 9 -21 23 -19 10 2 43 1 72 -3 51 -6 55 -9 88 -61 41 -64 68 -70
73 -16 4 35 13 40 32 17 17 -21 28 -10 41 41 12 45 32 58 44 27 10 -27 36 41
38 102 2 46 4 50 27 50 17 0 26 -7 30 -25 l6 -25 12 22 c7 12 12 29 12 39 0
16 1 16 20 -1 11 -10 20 -28 20 -41 0 -30 10 -54 22 -54 7 0 9 16 5 39 -2 21
-2 43 2 48 10 16 96 24 109 11 7 -7 15 -8 19 -4 4 4 -1 12 -12 19 -11 6 -49
40 -86 76 -49 50 -68 77 -78 113 -16 58 -10 77 29 84 16 4 30 10 30 15 0 18
44 9 75 -15 31 -24 132 -76 147 -76 5 0 27 -9 51 -19 23 -11 66 -24 95 -30 64
-13 62 -13 62 -1 0 6 -8 10 -17 10 -59 0 -291 129 -382 212 -48 45 -138 165
-152 205 -5 16 -18 70 -29 119 -11 49 -31 139 -44 199 -24 104 -33 214 -20
228 15 14 34 -8 34 -39 0 -21 8 -42 20 -54 13 -13 20 -33 20 -58 0 -44 66
-256 102 -327 29 -57 66 -97 120 -131 21 -13 44 -35 53 -47 18 -28 83 -65 175
-99 117 -44 138 -50 157 -40 10 5 50 13 88 16 39 4 84 13 100 21 17 7 50 22
75 33 25 11 57 31 71 44 14 13 41 31 60 42 20 10 52 33 72 50 20 17 58 46 84
64 238 163 282 195 366 263 63 52 152 132 183 163 49 50 208 274 253 358 62
114 76 120 86 36 3 -24 9 -68 14 -98 5 -30 7 -59 4 -63 -6 -10 13 -150 29
-213 8 -34 7 -46 -7 -68 -14 -22 -18 -58 -20 -223 -2 -109 -8 -220 -14 -248
-5 -27 -11 -57 -13 -65 -6 -30 15 -24 26 7 15 42 22 48 41 33 29 -24 9 -136
-36 -202 -24 -37 -26 -45 -14 -54 8 -6 15 -23 15 -38 0 -14 5 -26 11 -26 7 0
9 -10 4 -28 -4 -15 -6 -44 -6 -65 1 -21 -9 -64 -23 -95 -13 -31 -27 -74 -31
-95 -3 -20 -19 -52 -34 -70 -32 -36 -51 -127 -27 -127 23 0 54 -35 58 -65 2
-24 8 -30 26 -30 27 0 42 -20 42 -57 0 -16 5 -28 10 -28 6 0 10 16 10 35 0 26
9 45 34 73 40 43 58 36 31 -13 -21 -40 -16 -50 20 -41 16 4 25 13 25 26 0 12
7 20 18 20 20 1 62 33 62 49 0 15 45 32 64 25 9 -4 20 7 31 30 20 42 35 47 35
11 0 -40 23 -29 47 24 20 43 44 75 111 146 10 11 30 39 45 62 15 24 34 43 42
43 19 0 19 -19 0 -26 -8 -4 -15 -11 -15 -16 0 -16 57 -1 91 23 40 28 46 9 20
-62 -30 -82 -31 -104 -3 -103 25 1 26 -2 12 -42 -13 -38 1 -90 23 -86 13 2 17
-5 17 -27 0 -16 4 -32 9 -36 11 -6 48 30 57 57 7 22 43 24 58 3 6 -9 24 -17
41 -18 28 -2 30 1 45 58 9 33 19 66 24 73 16 26 26 10 24 -38 -4 -62 13 -66
28 -6 6 24 21 58 33 74 11 17 21 40 21 51 0 12 4 29 9 39 34 71 45 103 76 227
19 77 35 155 35 173 0 18 4 42 10 52 12 23 20 211 8 204 -4 -3 -8 1 -8 9 0 7
-11 24 -25 37 -13 12 -22 26 -20 30 3 4 -8 25 -23 47 -39 56 -52 81 -52 98 0
8 -13 29 -29 47 -15 18 -34 44 -41 58 -52 101 -228 328 -207 267 4 -10 7 -30
7 -43 0 -13 5 -24 10 -24 6 0 10 8 10 18 0 9 11 -7 25 -36 13 -29 38 -72 55
-96 16 -25 30 -51 30 -60 0 -8 5 -18 10 -21 6 -3 10 -11 10 -17 0 -17 -49 32
-56 56 -11 33 -70 117 -77 109 -4 -3 -7 -16 -7 -27 0 -17 -2 -18 -10 -6 -5 8
-10 26 -10 40 0 14 -13 50 -28 80 -40 81 -46 90 -54 90 -5 0 -8 8 -8 18 0 14
2 15 10 2 12 -20 23 -6 15 19 -6 21 -25 29 -25 11 0 -5 -4 -10 -9 -10 -4 0
-14 21 -21 48 -20 77 -21 80 -29 58 -13 -33 -24 0 -28 83 -2 42 -6 87 -9 101
-3 14 -8 45 -10 70 -4 33 -3 41 5 30 17 -24 13 74 -6 160 -9 41 -17 107 -19
145 -3 116 -1 110 -29 78 -13 -15 -34 -37 -45 -48 -23 -23 -40 -74 -40 -120
-1 -26 -2 -27 -11 -12 -7 13 -6 31 5 65 8 26 18 65 22 87 3 22 13 51 21 63 24
39 17 202 -15 362 -12 58 -21 119 -21 135 1 23 4 17 13 -22 6 -28 15 -55 19
-60 10 -9 1 71 -14 127 -5 19 -10 51 -11 70 -1 26 -3 22 -8 -20 l-7 -55 -1 73
c-1 42 2 72 8 72 6 0 9 35 8 85 -1 46 1 87 4 90 4 4 26 -33 51 -82 24 -48 58
-113 75 -143 17 -30 35 -73 41 -95 5 -22 13 -51 17 -65 4 -14 -15 17 -41 67
-50 95 -72 120 -36 42 11 -24 28 -65 37 -91 9 -27 20 -48 25 -48 24 0 75 -250
79 -385 0 -33 6 -64 12 -70 7 -7 9 15 4 74 -3 46 -3 81 1 77 13 -13 33 71 34
144 1 65 15 157 18 123 0 -7 6 -13 12 -13 6 0 9 6 6 14 -3 7 -1 18 4 23 13 13
29 228 23 308 -3 39 -12 97 -19 130 -8 33 -21 116 -30 185 -21 168 -45 311
-55 331 -5 9 -14 45 -20 80 -12 64 -104 355 -119 374 -5 5 -16 37 -26 70 -9
32 -22 64 -29 70 -7 5 -21 32 -30 58 -37 100 -173 337 -193 337 -2 0 8 -21 23
-47 15 -27 49 -93 77 -148 27 -55 54 -109 59 -119 20 -39 60 -152 72 -204 6
-30 14 -50 19 -46 7 7 11 -16 9 -46 -1 -8 11 -62 27 -120 89 -326 91 -339 91
-560 0 -96 0 -200 0 -232 1 -31 -4 -59 -9 -63 -6 -3 -11 -22 -11 -41 0 -27 -5
-37 -22 -43 -31 -12 -38 2 -38 79 1 59 2 63 15 46 14 -19 15 -18 16 15 5 136
-4 397 -17 469 -26 148 -32 172 -41 179 -6 3 -20 49 -33 101 -30 123 -120 381
-170 487 -21 46 -38 89 -36 96 1 7 1 9 -1 4 -3 -4 -9 -5 -14 -1 -5 3 0 -19 12
-48 47 -117 60 -151 56 -155 -2 -2 -10 11 -18 29 -19 47 -61 120 -65 115 -3
-2 18 -62 45 -133 59 -155 112 -310 117 -344 4 -22 3 -23 -5 -5 -18 39 -11 -4
9 -49 11 -26 20 -50 21 -54 1 -4 7 -27 14 -52 8 -25 19 -72 25 -105 7 -33 15
-64 19 -70 3 -5 7 -19 8 -30 3 -33 43 -217 49 -226 10 -17 14 -188 4 -194 -6
-4 -10 10 -10 34 0 31 -3 39 -14 35 -11 -4 -13 -17 -9 -55 4 -33 2 -49 -5 -49
-15 0 -20 26 -26 125 -3 59 -12 99 -35 152 -16 40 -33 90 -36 110 -4 21 -9 47
-12 58 -6 19 -6 19 -14 -3 -8 -22 -47 -31 -63 -15 -8 9 -109 33 -114 28 -2 -2
13 -8 32 -15 20 -6 34 -15 31 -20 -3 -4 -22 -2 -42 6 -63 22 -71 15 -17 -13
28 -14 59 -38 68 -54 19 -32 21 -120 6 -274 -6 -55 -14 -147 -19 -205 -5 -58
-20 -145 -32 -194 l-22 -89 24 -21 c63 -55 80 -133 37 -173 -28 -25 -81 -53
-102 -53 -8 0 -17 -14 -21 -32 -4 -18 -22 -85 -42 -148 -65 -211 -129 -311
-300 -465 -61 -55 -112 -104 -112 -109 -1 -5 6 -2 15 5 15 12 16 11 10 -7 -21
-67 -32 -127 -28 -153 3 -22 -4 -42 -27 -76 -17 -25 -31 -48 -31 -51 0 -3 -17
-28 -39 -57 -53 -72 -197 -207 -276 -258 -36 -23 -65 -45 -65 -49 0 -5 -12
-13 -28 -18 -15 -6 -45 -26 -67 -46 -22 -20 -48 -38 -58 -42 -9 -3 -17 -10
-17 -15 0 -5 -5 -9 -10 -9 -6 0 -39 -19 -73 -42 -34 -23 -74 -49 -88 -59 -28
-19 -111 -49 -134 -49 -8 0 -15 -4 -15 -9 0 -12 -32 -21 -110 -30 -80 -10
-130 7 -130 45 0 12 -4 25 -9 28 -5 3 -11 20 -13 38 -3 18 -8 41 -13 50 -5 13
-3 18 9 18 27 0 29 22 11 145 -9 63 -14 122 -11 130 8 22 79 65 114 70 25 3
89 35 72 35 -200 7 -376 52 -441 113 -14 14 -35 28 -47 31 -20 7 -68 73 -63
90 1 4 -5 18 -12 30 -8 12 -17 35 -21 53 -9 39 -43 73 -55 54 -6 -9 -10 -6
-14 11 -10 36 -8 73 5 86 8 8 8 15 0 25 -7 8 -12 25 -12 38 0 78 -8 133 -21
143 -19 16 -39 52 -39 73 0 15 -2 15 -21 -4 -25 -24 -18 -69 8 -58 13 5 14 3
3 -10 -15 -19 -56 -16 -52 3 1 8 -2 11 -9 6 -7 -4 -18 1 -26 11 -12 17 -13 16
-13 -14 0 -32 -1 -33 -22 -18 -19 12 -22 22 -20 56 2 22 0 41 -5 41 -5 0 -15
24 -23 53 -7 28 -17 59 -21 67 -4 8 -17 47 -29 87 -12 40 -30 83 -41 97 -10
13 -19 30 -19 36 0 7 -6 24 -14 38 -17 32 -46 127 -46 151 0 21 -29 104 -39
111 -17 12 -61 132 -66 176 -2 27 -7 66 -11 86 -7 46 3 81 21 74 8 -3 19 2 25
10 7 8 21 14 31 14 10 0 27 9 38 21 19 20 23 21 108 9 55 -8 158 -10 273 -7
178 4 216 8 243 23 6 4 -4 -9 -22 -29 -19 -21 -31 -37 -26 -37 5 0 0 -7 -13
-15 -31 -23 -70 -94 -73 -135 -3 -46 11 -111 22 -104 5 3 12 -3 16 -12 4 -10
2 -19 -5 -22 -7 -2 -12 -10 -12 -18 0 -8 -6 -14 -14 -14 -8 0 -17 -9 -21 -19
-3 -11 -16 -21 -28 -23 -14 -2 -28 -16 -39 -40 -10 -20 -26 -43 -37 -50 -10
-7 -24 -32 -31 -55 -11 -35 -10 -48 4 -89 9 -26 16 -57 16 -68 0 -21 17 -80
31 -108 5 -10 9 -33 9 -52 0 -19 6 -39 13 -43 14 -10 47 -57 67 -98 8 -16 30
-45 48 -62 37 -35 55 -33 94 7 15 16 32 18 140 13 68 -2 133 -5 143 -6 13 -1
20 4 19 16 -1 9 2 17 7 17 5 0 9 -6 9 -14 0 -17 69 -29 116 -20 24 4 34 12 34
25 0 11 -4 19 -10 19 -5 0 -7 6 -4 14 3 8 -4 19 -16 26 -15 8 -19 17 -15 28 4
9 8 24 8 32 0 8 7 20 16 27 16 12 15 13 -57 38 -7 3 -15 -2 -19 -11 -8 -20
-118 -9 -154 16 -15 10 -30 15 -35 10 -5 -4 -26 -5 -47 -2 -27 5 -43 15 -55
35 -16 26 -16 29 8 75 22 42 29 47 62 50 37 3 38 3 44 -39 l7 -42 19 39 c22
46 33 54 76 54 39 0 82 -37 82 -72 1 -18 6 -13 23 22 l22 45 55 -4 c64 -4 80
-14 80 -50 l0 -26 13 25 c11 21 19 25 55 22 49 -3 56 14 12 29 -16 6 -30 18
-30 26 0 13 -2 13 -15 -1 -8 -8 -15 -21 -15 -28 -1 -8 -6 -6 -16 7 -8 11 -12
25 -10 32 4 9 -5 12 -32 9 -20 -2 -31 -2 -25 1 10 3 9 8 -2 19 -14 14 -52 13
-76 -2 -6 -3 -21 5 -33 19 -18 22 -32 27 -96 33 -133 12 -240 11 -240 -4 0 -7
-4 -10 -10 -7 -5 3 -10 17 -10 30 0 33 -18 41 -30 13 -10 -25 -11 -30 5 95 5
38 10 47 26 47 10 0 19 -5 19 -11 0 -8 6 -7 17 2 12 11 52 14 164 13 l148 -2
-23 32 c-53 71 -126 235 -126 281 0 33 8 59 57 176 8 20 13 42 12 50 -6 31 78
260 101 274 21 13 90 -82 173 -236 90 -167 116 -204 124 -182 3 7 31 -2 81
-27 42 -21 102 -43 132 -49 297 -59 650 -30 739 61 29 30 41 59 24 57 -5 0
-21 -9 -38 -19 -113 -72 -171 -85 -375 -84 -174 1 -361 23 -300 36 28 6 25 6
-15 3 -152 -10 -283 121 -335 336 -48 200 -7 284 162 328 92 25 224 30 193 7
-12 -8 -16 -19 -11 -31 7 -20 -8 -48 -53 -92 -21 -22 -28 -36 -24 -52 l6 -22
19 21 c10 11 33 21 51 22 88 4 103 3 120 -7 9 -5 17 -15 17 -21 0 -17 93 -23
103 -7 5 8 28 13 61 13 59 0 75 12 101 73 14 33 45 52 45 27 0 -5 4 -10 10
-10 5 0 7 6 4 14 -6 15 -42 35 -93 51 -48 14 -56 40 -10 32 21 -4 29 -4 20 2
-30 19 57 17 165 -4 134 -27 196 -55 226 -104 20 -32 22 -49 22 -166 0 -127
-1 -132 -37 -217 -41 -96 -44 -113 -23 -121 21 -8 58 78 103 234 35 124 40
134 79 166 l41 35 -12 64 c-6 35 -10 66 -7 68 16 16 -185 67 -358 91 -90 12
-342 38 -450 46 -8 1 -51 -4 -95 -10 -44 -6 -110 -16 -147 -21 -37 -5 -121
-28 -186 -50 -101 -33 -133 -40 -201 -40 -72 0 -83 2 -105 25 -14 14 -30 25
-36 25 -5 0 -10 7 -10 17 0 9 -3 14 -6 10 -3 -3 -15 3 -26 13 -16 15 -25 17
-44 8 -13 -6 -21 -14 -19 -19 3 -4 -40 8 -94 27 -91 31 -297 73 -443 90 -32 3
-55 10 -52 15 3 5 -2 9 -11 9 -9 0 -15 7 -13 15 2 9 -8 21 -21 28 -36 18 -37
36 -1 51 24 10 28 15 16 19 -9 4 -16 11 -16 16 0 11 88 19 98 9 4 -4 27 -1 50
7 38 13 46 13 72 0 16 -8 35 -15 43 -15 8 0 22 -9 32 -20 10 -11 21 -17 26
-15 4 3 10 1 14 -5 3 -5 15 -10 26 -10 11 0 24 -11 31 -25 6 -14 18 -26 27
-27 9 0 27 -3 41 -4 14 -2 53 -5 87 -8 56 -3 63 -2 69 17 5 15 1 25 -15 35
-11 8 -21 23 -21 33 0 13 -6 18 -22 16 -21 -2 -23 2 -23 50 0 51 -1 53 -53 92
-53 40 -207 97 -294 109 -21 2 -38 8 -38 12 0 3 14 5 30 2 18 -3 30 0 30 7 0
6 -11 11 -25 11 -14 0 -25 5 -25 10 0 6 9 10 20 10 13 0 20 6 19 18 0 10 -3
12 -6 5 -2 -7 -16 -13 -29 -13 -17 0 -24 6 -24 20 0 19 4 22 33 24 6 1 14 17
17 36 4 29 9 35 28 33 26 -3 28 3 7 23 -19 19 -3 56 20 48 10 -4 15 0 15 14 0
12 20 40 45 63 35 33 43 47 39 65 -5 18 -1 23 17 26 16 2 26 13 32 33 14 47
23 60 43 64 10 2 23 9 27 17 4 8 15 14 24 14 9 0 21 7 28 17 7 9 23 17 36 19
13 1 28 3 32 3 4 1 3 10 -3 21 -13 24 4 34 70 45 27 5 50 15 58 27 9 12 23 18
40 16 17 -2 26 2 25 9 -2 7 8 15 22 19 14 3 35 19 48 34 21 25 28 27 83 23 32
-2 104 -6 159 -9 166 -8 219 -17 238 -43 13 -18 72 -41 104 -41 36 0 179 -56
201 -78 12 -12 26 -22 32 -22 5 0 17 -16 26 -35 12 -26 25 -37 54 -45 27 -7
57 -32 111 -88 90 -96 91 -97 156 -197 29 -44 66 -98 82 -120 50 -68 107 -183
165 -332 30 -78 70 -170 89 -205 53 -102 77 -166 64 -172 -9 -3 -9 -5 0 -5 7
-1 38 -13 69 -27 31 -14 58 -23 61 -20 8 8 -15 69 -69 184 -27 59 -75 167
-105 242 -30 74 -86 198 -124 276 -38 77 -69 146 -69 152 0 6 -7 15 -16 20
-10 5 -17 24 -19 45 -1 20 -14 55 -29 77 -15 22 -24 45 -21 50 5 9 -31 100
-39 100 -2 0 -2 -10 1 -22 3 -13 -19 13 -49 57 -29 44 -75 111 -102 148 -26
38 -45 71 -42 74 5 5 -17 33 -91 115 -13 15 -22 32 -19 37 4 5 1 13 -5 17 -8
5 -9 3 -3 -7 4 -8 -24 15 -64 51 -40 35 -72 65 -72 65 0 1 10 1 23 0 12 -2 21
-8 20 -14 -4 -13 14 -15 22 -1 3 5 -13 21 -36 35 -22 15 -38 29 -35 32 3 4 15
-2 26 -12 11 -10 20 -16 20 -13 0 4 14 -7 31 -23 17 -16 35 -27 39 -24 5 3 15
-4 23 -15 7 -11 31 -31 52 -46 l38 -26 -18 29 c-18 28 -18 28 1 13 10 -8 25
-23 32 -33 7 -9 17 -15 22 -12 4 3 36 -25 70 -62 34 -38 58 -61 54 -53 -7 13
-6 13 9 1 10 -8 25 -29 33 -47 9 -19 21 -34 26 -34 6 0 6 5 -1 14 -9 10 -8 15
2 19 16 6 42 -20 51 -51 10 -31 32 -46 40 -27 3 9 2 14 -3 11 -5 -3 -14 1 -21
9 -11 13 -10 14 6 8 20 -8 -95 128 -165 194 -25 23 -40 43 -32 43 16 0 -5 25
-116 134 -46 45 -83 85 -83 89 0 11 94 -65 197 -160 120 -110 160 -141 101
-75 -52 56 -57 65 -30 55 13 -5 11 0 -7 20 -14 15 -29 27 -34 27 -10 0 -46 41
-47 53 0 8 91 -54 138 -95 48 -42 66 -32 22 12 -21 21 -71 92 -68 96 3 2 36
-18 74 -46 70 -51 84 -58 84 -40 0 6 -4 10 -9 10 -11 0 -43 61 -36 68 4 4 104
-67 132 -94 7 -7 23 -21 35 -31 34 -28 208 -220 255 -283 23 -30 46 -67 52
-83 6 -15 16 -27 24 -27 7 0 21 -13 30 -30 20 -34 9 -42 -11 -9 -7 12 -16 18
-19 15 -3 -3 19 -49 49 -103 76 -137 183 -403 197 -493 4 -25 13 -56 20 -69 7
-13 15 -56 17 -95 2 -39 20 -132 39 -206 59 -227 100 -434 120 -600 4 -30 14
-66 22 -78 8 -13 12 -27 8 -30 -3 -4 -10 0 -15 8 -15 24 -12 -23 11 -177 11
-76 24 -208 28 -293 5 -85 14 -170 21 -188 9 -25 9 -55 0 -133 -6 -55 -10
-137 -9 -182 1 -55 -3 -97 -14 -129 -12 -35 -16 -79 -14 -183 1 -75 -1 -139
-5 -142 -16 -9 -8 -82 10 -100 10 -10 24 -31 32 -47 8 -16 21 -31 29 -34 29
-11 61 -46 61 -66 2 -104 286 -289 562 -366 59 -17 88 -19 151 -14 69 6 77 5
71 -10 -3 -9 0 -24 7 -33 12 -14 11 -15 -9 -9 -37 12 -25 -10 27 -48 39 -29
58 -36 95 -36 25 0 46 -4 46 -10 0 -5 -10 -10 -22 -10 l-22 0 22 -20 c12 -11
34 -20 49 -20 17 0 43 -12 63 -30 19 -16 41 -29 48 -30 6 0 12 -5 12 -10 0
-20 39 -53 54 -47 24 9 45 -2 61 -33 10 -19 26 -31 47 -36 38 -8 83 -31 116
-59 30 -26 82 -72 103 -91 10 -8 20 -35 23 -59 4 -24 14 -49 21 -55 8 -7 15
-17 15 -22 0 -5 9 -22 21 -36 44 -57 89 -137 89 -160 0 -12 7 -36 15 -52 8
-16 19 -46 23 -67 6 -30 13 -38 30 -38 27 -1 49 -20 32 -30 -6 -4 -17 -2 -25
5 -27 22 -28 -11 0 -40 19 -20 25 -34 20 -49 -4 -13 -1 -27 8 -35 8 -8 22 -53
31 -101 10 -48 26 -101 37 -118 12 -20 19 -50 19 -80 0 -27 6 -63 13 -80 8
-18 22 -66 32 -107 9 -41 23 -88 30 -105 8 -16 20 -82 29 -146 8 -64 20 -128
26 -144 6 -15 17 -71 25 -125 8 -54 19 -110 25 -125 5 -14 10 -59 10 -100 0
-41 5 -86 11 -102 14 -34 32 -215 34 -333 0 -47 6 -101 13 -121 7 -20 15 -81
17 -135 2 -55 9 -112 15 -129 6 -16 10 -57 9 -90 -2 -33 3 -79 10 -102 l14
-43 64 0 63 0 0 4270 0 4270 -4270 0 -4270 0 0 -4270z m3666 3739 c8 -14 -10
-11 -32 6 -18 13 -18 14 4 8 12 -3 25 -9 28 -14z m54 -81 c0 -6 -6 -5 -15 2
-8 7 -15 14 -15 16 0 2 7 1 15 -2 8 -4 15 -11 15 -16z m-140 -88 c11 -7 2 -9
-32 -8 -26 1 -45 5 -42 10 7 11 56 10 74 -2z m1205 -190 c3 -6 -1 -7 -9 -4
-18 7 -21 14 -7 14 6 0 13 -4 16 -10z m255 -525 c7 -9 8 -15 2 -15 -5 0 -12 7
-16 15 -3 8 -4 15 -2 15 2 0 9 -7 16 -15z m50 -87 c0 -6 -7 -5 -15 2 -8 7 -15
17 -15 22 0 6 7 5 15 -2 8 -7 15 -17 15 -22z m-1756 -889 c96 -18 224 -60 262
-85 19 -13 39 -24 44 -24 23 0 34 -150 13 -171 -23 -23 -43 8 -43 65 0 43 -4
55 -27 77 -16 14 -39 32 -53 39 -14 7 -29 19 -33 26 -4 8 -22 14 -40 14 -18 0
-45 8 -60 19 -15 10 -38 16 -50 14 -12 -2 -49 5 -82 16 -54 17 -57 19 -26 20
19 1 62 -4 95 -10z m403 -25 c-3 -3 -12 -4 -19 -1 -8 3 -5 6 6 6 11 1 17 -2
13 -5z m816 -51 c-7 -2 -19 -2 -25 0 -7 3 -2 5 12 5 14 0 19 -2 13 -5z m-1299
-24 c-8 -14 -24 -10 -24 6 0 9 6 12 15 9 8 -4 12 -10 9 -15z m91 -39 c9 -28 0
-37 -41 -42 -27 -3 -32 -2 -22 6 8 6 20 21 27 34 15 27 28 28 36 2z m1425 -10
c0 -5 -4 -10 -10 -10 -5 0 -10 5 -10 10 0 6 5 10 10 10 6 0 10 -4 10 -10z
m-1370 -20 c0 -5 -4 -10 -10 -10 -5 0 -10 5 -10 10 0 6 5 10 10 10 6 0 10 -4
10 -10z m1190 -11 c7 -11 9 -27 6 -34 -4 -12 -10 -11 -35 1 -45 22 -40 45 11
53 4 0 12 -8 18 -20z m-1989 -246 c6 -19 9 -37 6 -39 -14 -14 -48 159 -46 231
1 23 7 -2 15 -59 7 -54 18 -114 25 -133z m797 202 c53 -4 59 -9 40 -37 -14
-21 -14 -24 11 -46 14 -12 35 -25 46 -28 11 -3 30 -19 42 -37 19 -26 20 -34
10 -46 -7 -9 -19 -38 -26 -66 -7 -27 -19 -57 -27 -66 -8 -8 -14 -21 -14 -28 0
-6 -14 -27 -31 -45 -44 -49 -102 -61 -279 -60 -268 3 -380 28 -374 81 1 14 -1
35 -5 46 -5 14 -2 36 10 62 10 22 19 48 19 58 0 10 13 32 28 48 24 26 40 32
98 39 38 5 77 9 87 10 17 0 17 1 3 16 -40 39 -10 74 72 86 32 4 75 12 97 17
22 5 65 7 95 4 30 -3 74 -6 98 -8z m2381 -150 l-1 -60 -13 65 c-13 65 -10 94
6 69 5 -8 8 -41 8 -74z m358 -327 c-3 -8 -6 -5 -6 6 -1 11 2 17 5 13 3 -3 4
-12 1 -19z m-170 -160 c-3 -8 -6 -5 -6 6 -1 11 2 17 5 13 3 -3 4 -12 1 -19z
m0 -100 c-3 -7 -5 -2 -5 12 0 14 2 19 5 13 2 -7 2 -19 0 -25z m-2369 -2 c-20
-6 -40 -14 -44 -18 -20 -21 -35 -3 -25 29 1 2 25 2 54 1 l52 -2 -37 -10z
m2367 -86 c-3 -5 -12 -10 -18 -10 -7 0 -6 4 3 10 19 12 23 12 15 0z m-3259
-318 c6 -4 21 -34 33 -67 13 -33 30 -68 38 -77 11 -12 12 -18 4 -18 -16 0 -10
-42 7 -48 7 -2 12 6 13 20 l0 23 12 -24 c9 -19 9 -25 -1 -29 -6 -2 -12 -12
-12 -23 0 -27 -8 -24 -41 14 -37 41 -53 76 -73 156 -18 74 -12 95 20 73z m818
-115 c11 -44 -5 -87 -33 -87 -33 0 -39 101 -7 122 19 13 31 3 40 -35z m-704
-38 c0 -5 -4 -9 -10 -9 -5 0 -10 7 -10 16 0 8 5 12 10 9 6 -3 10 -10 10 -16z
m970 -130 c0 -5 10 -9 23 -9 22 0 21 -1 -3 -13 -19 -9 -26 -22 -28 -50 -4 -44
-21 -40 -23 6 -1 18 -3 24 -6 15 -7 -28 -38 -30 -87 -6 -31 15 -46 28 -46 41
0 16 6 18 30 15 17 -3 30 -1 30 3 0 9 66 16 93 10 9 -2 17 -7 17 -12z m1940
-257 c0 -12 -3 -12 -15 -2 -8 7 -15 22 -15 34 1 21 1 21 15 2 8 -11 15 -26 15
-34z m-5 -206 c8 4 15 4 15 2 0 -2 13 -64 29 -138 19 -93 29 -169 30 -242 1
-59 6 -122 12 -140 5 -18 9 -44 8 -58 -1 -44 -27 38 -28 90 -1 25 -10 71 -21
103 -11 32 -24 86 -30 120 -6 34 -19 96 -30 137 -10 41 -22 98 -25 125 -6 49
-6 50 10 23 10 -17 21 -25 30 -22z m262 -588 c-3 -7 -5 -2 -5 12 0 14 2 19 5
13 2 -7 2 -19 0 -25z m145 -115 c9 -16 19 -48 23 -73 4 -25 14 -54 21 -65 8
-11 14 -29 14 -40 0 -14 -5 -10 -17 15 -9 19 -29 62 -45 95 -28 59 -35 95 -20
95 4 0 15 -12 24 -27z m-755 -15 c-3 -8 -6 -5 -6 6 -1 11 2 17 5 13 3 -3 4
-12 1 -19z m-3195 -870 c-7 -7 -12 -8 -12 -2 0 6 3 14 7 17 3 4 9 5 12 2 2 -3
-1 -11 -7 -17z m3148 -93 c0 -21 -22 -65 -32 -65 -18 0 -20 31 -4 55 18 28 36
33 36 10z m-40 -135 c0 -5 -4 -10 -10 -10 -5 0 -10 5 -10 10 0 6 5 10 10 10 6
0 10 -4 10 -10z m-4193 -981 c21 -12 58 -28 83 -35 54 -16 106 -56 96 -72 -8
-13 -45 -7 -88 15 -39 19 -138 94 -138 104 0 13 5 11 47 -12z m484 -194 c19
-8 45 -23 59 -34 40 -31 15 -44 -93 -49 l-93 -4 -27 32 c-27 31 -33 51 -20 63
12 13 141 7 174 -8z m-306 -65 c72 -14 165 -56 165 -75 0 -19 -35 -28 -75 -21
-32 6 -157 80 -163 97 -2 5 -10 9 -17 9 -24 0 -61 21 -74 42 -11 17 -5 16 46
-10 32 -17 85 -36 118 -42z m1740 45 c28 -2 160 -6 295 -10 135 -3 281 -10
325 -15 44 -6 109 -12 145 -15 36 -3 80 -8 99 -10 19 -3 40 0 48 6 9 8 17 8
26 1 12 -10 211 -29 257 -25 14 2 30 3 35 4 6 0 73 -2 150 -6 77 -3 329 -8
560 -10 231 -3 454 -7 495 -10 41 -3 165 -10 275 -16 110 -6 220 -13 245 -15
25 -2 52 -5 60 -5 180 -9 347 -60 427 -130 34 -29 81 -53 124 -63 19 -4 29
-15 37 -44 21 -68 18 -75 -28 -68 -48 7 -70 19 -118 63 -41 36 -189 87 -299
103 -37 5 -93 14 -123 20 -56 10 -121 14 -390 26 -85 3 -182 8 -215 10 -170
10 -284 14 -650 19 -396 7 -553 11 -672 21 -36 4 -70 1 -82 -5 -16 -9 -26 -8
-43 3 -15 9 -66 16 -152 20 -70 4 -132 8 -135 11 -4 2 -52 7 -107 10 -54 3
-115 7 -134 10 -49 6 -821 21 -955 18 -197 -4 -449 -24 -509 -39 -127 -34 -74
44 61 89 73 24 241 52 358 60 59 4 517 -2 590 -8z m1255 -25 c0 -5 -5 -10 -11
-10 -5 0 -7 5 -4 10 3 6 8 10 11 10 2 0 4 -4 4 -10z m-2625 -157 c39 -19 46
-47 18 -69 -29 -21 -68 -16 -97 12 -58 59 -6 97 79 57z m-345 -44 c30 -11 98
-31 150 -45 52 -14 106 -30 119 -37 31 -15 39 -42 15 -51 -30 -12 -190 28
-309 77 -60 24 -147 85 -140 97 6 9 66 -6 165 -41z m566 16 c-7 -19 -36 -19
-36 0 0 17 33 38 38 24 2 -5 1 -16 -2 -24z m1329 -20 c39 -3 147 -8 240 -10
171 -4 202 -6 330 -19 39 -4 86 -9 105 -11 19 -2 70 -9 113 -15 l77 -12 0 -41
0 -40 -182 7 c-101 3 -219 11 -263 16 -114 13 -502 22 -1072 25 -467 3 -495 2
-530 -16 -21 -10 -45 -19 -55 -19 -35 0 -17 30 34 56 29 15 70 38 91 51 31 20
58 25 150 32 113 9 833 5 962 -4z m-1417 -147 c16 -16 15 -45 0 -50 -31 -11
-94 23 -85 46 8 19 67 22 85 4z m-489 -39 c131 -36 243 -58 326 -65 83 -6 169
-37 162 -57 -18 -55 -334 -7 -492 74 -46 23 -120 84 -91 75 10 -4 53 -16 95
-27z m2901 -9 c7 12 10 11 15 -5 4 -11 10 -29 15 -40 5 -11 11 -28 14 -37 4
-15 19 -18 83 -19 43 -1 92 -2 108 -4 17 -1 156 -5 310 -9 262 -6 497 -14 625
-21 30 -2 191 -10 357 -20 218 -12 312 -13 340 -6 71 19 124 15 188 -14 102
-47 175 -65 258 -65 92 0 137 -18 137 -54 0 -40 -25 -51 -119 -51 -83 0 -90 2
-185 49 -121 60 -172 68 -242 36 -45 -21 -138 -35 -156 -23 -5 2 -56 6 -115 8
-132 6 -258 13 -338 21 -66 6 -201 10 -545 19 -124 3 -272 7 -330 10 -58 3
-161 7 -230 10 -153 6 -223 14 -231 27 -4 7 -14 6 -27 -1 -11 -6 -24 -11 -29
-11 -14 0 -43 61 -43 91 0 26 3 29 24 23 20 -5 27 0 40 25 9 16 16 37 16 45 0
19 21 26 38 13 10 -8 16 -7 22 3z m-1251 -25 c35 -2 181 -6 325 -10 250 -5
425 -13 436 -20 3 -2 51 -6 108 -9 57 -3 112 -10 122 -16 10 -5 27 -10 38 -10
15 0 18 -5 14 -25 -3 -20 1 -27 23 -35 15 -6 25 -15 23 -22 -4 -11 -28 -11
-178 -3 -193 12 -671 33 -925 41 -88 2 -214 9 -280 14 -66 5 -205 8 -310 7
l-189 -2 -15 27 c-14 25 -14 29 0 43 8 9 47 19 89 24 67 8 557 5 719 -4z
m1091 -20 c0 -16 -27 -28 -36 -14 -7 12 15 41 27 33 5 -3 9 -11 9 -19z m-2637
-158 c60 -14 165 -33 235 -42 186 -24 192 -25 192 -35 0 -42 -199 -55 -332
-21 -40 10 -92 26 -113 36 -61 28 -144 79 -145 89 0 10 19 7 163 -27z m1257
-27 c96 -11 229 -22 295 -25 169 -6 336 -13 510 -20 83 -4 173 -8 200 -10 28
-3 88 -7 135 -10 47 -2 166 -11 265 -20 262 -21 719 -43 1040 -50 289 -7 321
-8 515 -25 63 -5 179 -10 256 -10 l141 0 91 40 c115 51 149 52 225 4 32 -20
56 -38 54 -41 -3 -2 -14 1 -24 8 -32 19 -106 2 -164 -38 -115 -79 -127 -81
-384 -77 -127 2 -250 6 -275 8 -55 5 -530 24 -773 30 -97 3 -181 7 -185 10 -4
2 -66 7 -137 11 -233 11 -279 14 -390 25 -61 6 -159 13 -220 16 -60 2 -159 9
-220 14 -60 6 -155 10 -210 10 -139 0 -472 26 -580 46 -270 48 -420 58 -597
39 l-77 -8 -7 28 c-8 33 4 42 66 50 25 4 54 10 65 15 26 11 167 4 385 -20z
m4130 10 c0 -22 -29 -80 -40 -80 -23 0 -50 21 -50 39 0 10 14 24 33 34 38 19
57 21 57 7z m-5491 -144 c138 -42 244 -59 401 -67 223 -10 247 -21 135 -58
-79 -25 -179 -28 -292 -6 -90 17 -115 26 -201 68 -63 31 -146 95 -108 82 11
-3 40 -12 65 -19z m5431 -41 c0 -8 -4 -15 -10 -15 -5 0 -10 7 -10 15 0 8 5 15
10 15 6 0 10 -7 10 -15z"/>
<path d="M3280 5840 c0 -5 6 -10 14 -10 8 0 18 5 21 10 3 6 -3 10 -14 10 -12
0 -21 -4 -21 -10z"/>
<path d="M3220 5830 c0 -5 7 -10 15 -10 8 0 15 5 15 10 0 6 -7 10 -15 10 -8 0
-15 -4 -15 -10z"/>
<path d="M4705 7630 c-8 -13 32 -60 56 -64 8 -1 25 -8 39 -15 22 -12 21 -10
-7 21 -18 19 -33 40 -33 48 0 11 -3 11 -12 2 -9 -9 -14 -7 -23 5 -9 12 -14 13
-20 3z m56 -47 c13 -16 12 -17 -3 -4 -10 7 -18 15 -18 17 0 8 8 3 21 -13z"/>
<path d="M4870 7534 c1 -9 80 -100 80 -92 0 2 -11 19 -25 38 -17 22 -21 36
-14 41 8 5 8 8 0 13 -6 4 -11 2 -11 -5 0 -8 -4 -8 -15 1 -8 7 -15 9 -15 4z"/>
<path d="M5179 7485 c23 -27 68 -81 101 -120 104 -125 103 -123 90 -97 -17 34
-96 130 -168 202 -55 54 -58 57 -23 15z"/>
<path d="M4920 7506 c0 -2 7 -9 15 -16 13 -11 14 -10 9 4 -5 14 -24 23 -24 12z"/>
<path d="M4970 7448 c11 -12 20 -26 20 -32 0 -5 3 -7 6 -4 7 8 -25 58 -38 58
-5 0 0 -10 12 -22z"/>
<path d="M4966 7288 c32 -48 60 -86 62 -84 4 5 -60 104 -93 141 -14 17 0 -9
31 -57z"/>
<path d="M5121 7315 c-1 -14 37 -61 43 -54 3 2 -6 18 -19 34 -13 17 -24 26
-24 20z"/>
<path d="M5060 7301 c0 -6 4 -13 10 -16 6 -3 7 1 4 9 -7 18 -14 21 -14 7z"/>
<path d="M5190 7293 c0 -15 41 -75 47 -70 3 3 -5 22 -17 41 -21 35 -30 43 -30
29z"/>
<path d="M5100 7240 c12 -16 24 -30 26 -30 3 0 -4 14 -16 30 -12 17 -24 30
-26 30 -3 0 4 -13 16 -30z"/>
<path d="M5190 7215 c0 -8 4 -15 10 -15 5 0 7 7 4 15 -4 8 -8 15 -10 15 -2 0
-4 -7 -4 -15z"/>
<path d="M5100 7179 c0 -13 113 -220 117 -215 6 6 -59 135 -93 185 -13 20 -24
33 -24 30z"/>
<path d="M5326 7105 c4 -8 11 -15 16 -15 6 0 5 6 -2 15 -7 8 -14 15 -16 15 -2
0 -1 -7 2 -15z"/>
<path d="M5354 6994 c29 -49 46 -73 46 -62 0 11 -52 98 -63 105 -6 4 2 -16 17
-43z"/>
<path d="M5300 7000 c6 -11 13 -20 16 -20 2 0 0 9 -6 20 -6 11 -13 20 -16 20
-2 0 0 -9 6 -20z"/>
<path d="M5350 6921 c5 -11 15 -23 21 -27 6 -3 3 5 -6 20 -20 30 -30 35 -15 7z"/>
<path d="M5410 6890 c1 -8 17 -44 36 -80 36 -66 36 -63 2 25 -21 54 -38 79
-38 55z"/>
<path d="M3280 6849 c0 -5 5 -7 10 -4 6 3 10 8 10 11 0 2 -4 4 -10 4 -5 0 -10
-5 -10 -11z"/>
<path d="M5290 6851 c0 -19 172 -372 178 -366 7 7 -74 189 -104 232 -13 20
-27 48 -31 62 -8 33 -43 91 -43 72z"/>
<path d="M4449 6528 c-12 -5 -31 -6 -42 -2 -15 5 -19 3 -14 -9 5 -13 0 -15
-29 -10 -28 5 -34 3 -35 -13 0 -11 -3 -14 -6 -6 -3 9 -10 7 -24 -9 -10 -12
-19 -26 -19 -31 0 -13 18 -10 23 5 3 6 6 3 6 -7 1 -11 4 -17 7 -13 3 3 15 -3
27 -13 11 -11 24 -17 28 -14 4 2 10 0 14 -6 4 -6 11 -7 17 -4 14 9 234 15 271
8 15 -3 25 -9 22 -14 -3 -4 6 -10 20 -12 14 -3 25 -1 25 3 0 5 -5 9 -12 9 -6
0 -9 2 -6 5 3 3 31 2 61 -3 31 -5 54 -5 51 -1 -4 7 40 4 90 -6 25 -5 88 24 83
38 -7 21 -25 18 -31 -5 -5 -19 -8 -20 -16 -8 -13 19 -13 33 0 25 6 -3 10 -2
10 4 0 12 -40 41 -55 41 -5 -1 1 -7 15 -15 14 -8 21 -14 15 -15 -5 0 -26 10
-45 22 -56 34 -180 57 -292 53 -38 -1 -68 1 -68 5 0 10 -62 9 -91 -2z"/>
<path d="M5411 6495 c0 -5 13 -35 29 -65 16 -30 29 -50 29 -45 0 6 -13 35 -29
65 -16 30 -29 51 -29 45z"/>
<path d="M5510 6275 c0 -5 5 -17 10 -25 5 -8 10 -10 10 -5 0 6 -5 17 -10 25
-5 8 -10 11 -10 5z"/>
<path d="M4911 5963 c11 -13 11 -17 2 -20 -22 -8 -14 -23 11 -23 14 0 27 -4
30 -9 6 -9 46 -4 46 6 0 9 -33 38 -58 50 -34 18 -47 16 -31 -4z"/>
<path d="M5596 5957 c3 -10 9 -15 12 -12 3 3 0 11 -7 18 -10 9 -11 8 -5 -6z"/>
<path d="M4091 5774 c0 -11 3 -14 6 -6 3 7 2 16 -1 19 -3 4 -6 -2 -5 -13z"/>
<path d="M4130 5652 c0 -17 43 -102 51 -102 4 0 -4 24 -18 53 -28 58 -33 65
-33 49z"/>
<path d="M4483 5383 c9 -2 25 -2 35 0 9 3 1 5 -18 5 -19 0 -27 -2 -17 -5z"/>
<path d="M4578 5373 c23 -2 59 -2 80 0 20 2 1 4 -43 4 -44 0 -61 -2 -37 -4z"/>
<path d="M4013 5164 c-40 -18 21 -43 110 -45 31 -1 60 0 63 4 3 3 -6 13 -21
23 -27 18 -127 29 -152 18z"/>
<path d="M4545 5130 c-3 -5 -1 -10 4 -10 6 0 11 5 11 10 0 6 -2 10 -4 10 -3 0
-8 -4 -11 -10z"/>
<path d="M5752 5048 c0 -13 -2 -70 -4 -128 -5 -112 0 -151 21 -158 9 -3 11 11
6 59 -5 55 -4 60 7 39 l12 -25 4 28 c2 15 8 25 13 22 15 -10 10 48 -8 106 -23
72 -51 102 -51 57z"/>
<path d="M6057 4693 c-15 -143 11 -272 55 -273 16 0 19 50 5 77 -22 42 -36
114 -27 137 6 18 -10 99 -23 112 -2 3 -7 -21 -10 -53z"/>
<path d="M4174 4692 c19 -21 36 -21 36 0 0 6 -3 8 -6 5 -4 -3 -16 -1 -28 5
-21 11 -21 11 -2 -10z"/>
<path d="M4232 4689 c3 -9 22 -15 54 -16 42 -1 45 0 19 7 -16 5 -41 12 -54 16
-18 5 -23 4 -19 -7z"/>
<path d="M5737 4673 c2 -16 7 -39 10 -53 l5 -25 9 24 c7 17 6 34 -2 53 -15 36
-27 36 -22 1z"/>
<path d="M4353 4673 c10 -3 17 -14 17 -29 0 -37 -27 -94 -44 -94 -9 0 -16 -4
-16 -9 0 -6 12 -6 31 -1 16 5 37 6 46 3 12 -5 14 -3 8 6 -5 10 -2 11 12 7 28
-9 105 48 96 71 -15 44 -34 53 -102 52 -36 -1 -58 -3 -48 -6z"/>
<path d="M4154 4549 c-3 -6 -19 -9 -35 -5 -22 4 -29 2 -29 -9 0 -8 8 -15 19
-15 30 0 81 21 75 31 -7 12 -21 11 -30 -2z"/>
<path d="M4260 4550 c0 -5 5 -10 10 -10 6 0 10 5 10 10 0 6 -4 10 -10 10 -5 0
-10 -4 -10 -10z"/>
<path d="M4048 4523 c7 -3 16 -2 19 1 4 3 -2 6 -13 5 -11 0 -14 -3 -6 -6z"/>
<path d="M3240 4340 c0 -5 5 -10 10 -10 6 0 10 5 10 10 0 6 -4 10 -10 10 -5 0
-10 -4 -10 -10z"/>
<path d="M6061 4334 c0 -11 3 -14 6 -6 3 7 2 16 -1 19 -3 4 -6 -2 -5 -13z"/>
<path d="M3435 4290 c4 -6 11 -8 16 -5 14 9 11 15 -7 15 -8 0 -12 -5 -9 -10z"/>
<path d="M3400 3860 c0 -5 7 -10 15 -10 8 0 15 5 15 10 0 6 -7 10 -15 10 -8 0
-15 -4 -15 -10z"/>
<path d="M6330 3387 c0 -2 12 -17 26 -33 l26 -29 -16 33 c-9 17 -21 32 -26 32
-6 0 -10 -2 -10 -3z"/>
<path d="M6321 3224 c0 -11 3 -14 6 -6 3 7 2 16 -1 19 -3 4 -6 -2 -5 -13z"/>
<path d="M6340 3190 c0 -8 5 -22 10 -30 9 -13 10 -13 10 0 0 8 -5 22 -10 30
-9 13 -10 13 -10 0z"/>
<path d="M6416 3052 c-3 -5 -1 -24 4 -43 6 -19 10 -46 10 -61 0 -16 4 -28 8
-28 5 0 13 -12 19 -27 l11 -28 1 33 c1 35 -25 141 -39 155 -4 5 -10 4 -14 -1z"/>
<path d="M5067 2873 c-4 -3 -7 -16 -7 -27 1 -21 1 -21 15 -2 8 11 15 23 15 28
0 10 -14 11 -23 1z"/>
<path d="M6492 2795 c0 -16 2 -22 5 -12 2 9 2 23 0 30 -3 6 -5 -1 -5 -18z"/>
<path d="M5037 2773 c-4 -3 -7 -13 -7 -22 1 -13 3 -13 11 2 11 19 8 33 -4 20z"/>
<path d="M1503 1720 c4 -18 7 -39 7 -46 0 -8 7 -14 15 -14 12 0 13 4 5 19 -5
11 -10 29 -10 40 0 11 -5 23 -12 27 -8 5 -9 -2 -5 -26z"/>
<path d="M1523 1623 c7 -37 25 -101 52 -193 12 -41 30 -105 40 -142 18 -68 30
-83 42 -52 10 27 -41 243 -71 299 -9 17 -16 39 -16 50 0 24 -26 65 -42 65 -6
0 -8 -11 -5 -27z"/>
<path d="M8275 273 c-16 -8 -37 -21 -45 -28 -21 -17 -176 -81 -230 -95 -25 -6
-85 -25 -135 -41 -132 -44 -441 -82 -675 -84 -85 -1 -171 -6 -190 -12 -26 -8
77 -11 420 -12 450 -1 456 -1 540 23 89 25 258 101 304 137 32 25 70 95 62
115 -7 17 -14 17 -51 -3z"/>
<path d="M8334 51 c-5 -5 -27 -18 -49 -30 l-40 -21 47 0 c43 0 48 3 54 25 7
29 2 39 -12 26z"/>
</g>
</svg>
